<svg xmlns="http://www.w3.org/2000/svg" width="16.107" height="14" viewBox="0 0 16.107 14">
  <path id="Vector" d="M15.467.032.3,5.82A.472.472,0,0,0,.3,6.7l4.26,1.645v5.182a.472.472,0,0,0,.893.212l1.762-3.5,4.3,3.191a.472.472,0,0,0,.733-.241C16.263.033,16.089.605,16.1.572A.472.472,0,0,0,15.467.032ZM4.967,7.491,1.788,6.264,12.353,2.23Zm6.977-3.81C6.4,9.525,6.693,9.218,6.669,9.25c-.036.048.062-.14-1.163,2.293V8.266ZM7.757,9.47,14.6,2.251,11.541,12.278Z" transform="translate(0 0)" fill="#fff" style="mix-blend-mode: normal;isolation: isolate"/>
</svg>
